<svg id="Artboard_30" enable-background="new 0 0 64 64" height="512" viewBox="0 0 64 64" width="512" xmlns="http://www.w3.org/2000/svg"><g><g><path d="m32 63.02c-8.972 0-16-13.617-16-31s7.028-31 16-31 16 13.617 16 31-7.028 31-16 31zm0-60c-7.589 0-14 13.28-14 29s6.411 29 14 29 14-13.28 14-29-6.411-29-14-29z" fill="#ffd55d"/></g><g><path d="m48.982 52.852c-7.138 0-16.153-2.607-25.157-7.688-16.663-9.401-26.209-22.981-21.733-30.915 4.418-7.827 20.974-6.679 37.694 2.615 12.204 6.784 21.196 15.993 22.909 23.461.665 2.902.253 5.439-1.224 7.541-2.352 3.346-6.83 4.986-12.489 4.986zm-34.934-41.832c-4.909 0-8.613 1.375-10.214 4.212-3.794 6.726 5.811 19.635 20.974 28.19 14.991 8.46 30.379 9.906 35.027 3.293 1.138-1.618 1.443-3.618.91-5.943-1.592-6.941-10.2-15.639-21.932-22.16-8.967-4.986-18.007-7.592-24.765-7.592z" fill="#c64635"/></g><circle cx="32" cy="31.02" fill="#ffc239" r="10"/><path d="m32 21.02c-4.865 0-8.915 3.476-9.811 8.078 5.375 3.65 11.565 6.184 18.238 7.29.991-1.551 1.573-3.39 1.573-5.368 0-5.523-4.477-10-10-10z" fill="#ffd55d"/><path d="m32 30.02c-1.103 0-2-.897-2-2s.897-2 2-2 2 .897 2 2h2c0-1.858-1.279-3.411-3-3.858v-1.142h-2v1.142c-1.721.447-3 2-3 3.858 0 2.206 1.794 4 4 4 1.103 0 2 .897 2 2s-.897 2-2 2-2-.897-2-2h-2c0 1.858 1.279 3.411 3 3.858v1.142h2v-1.142c1.721-.447 3-2 3-3.858 0-2.205-1.794-4-4-4z" fill="#ffe693"/><circle cx="54" cy="10.02" fill="#ffd55d" r="3"/><circle cx="11" cy="52.02" fill="#ffd55d" r="3"/><path d="m61.907 14.249c-.867-1.534-2.199-2.75-3.969-3.623.031-.199.062-.398.062-.606 0-2.206-1.794-4-4-4-1.871 0-3.433 1.295-3.868 3.033-7.433-.064-16.808 2.746-25.919 7.811-12.204 6.784-21.196 15.993-22.909 23.46-.665 2.902-.253 5.439 1.224 7.541 1.061 1.508 2.601 2.672 4.538 3.51-.035.212-.066.424-.066.645 0 2.206 1.794 4 4 4 1.927 0 3.539-1.37 3.916-3.187.038 0 .076.002.114.002 7.357 0 16.446-2.764 25.144-7.671 16.663-9.401 26.209-22.981 21.733-30.915zm-7.907-6.229c1.103 0 2 .897 2 2s-.897 2-2 2-2-.897-2-2 .897-2 2-2zm-43 46c-1.103 0-2-.897-2-2s.897-2 2-2 2 .897 2 2-.897 2-2 2zm28.191-10.598c-8.505 4.799-17.339 7.476-24.394 7.405-.511-1.62-2.01-2.806-3.798-2.806-1.271 0-2.391.607-3.124 1.533-1.602-.691-2.864-1.632-3.712-2.838-1.138-1.618-1.443-3.618-.91-5.943 1.592-6.941 10.2-15.639 21.932-22.16 8.702-4.836 17.962-7.62 24.967-7.558.459 1.703 2.001 2.967 3.848 2.967 1.273 0 2.395-.609 3.128-1.538 1.355.689 2.389 1.601 3.037 2.749 3.794 6.724-5.811 19.634-20.974 28.189z" fill="#92d631"/></g><g><path d="m57.939 10.606c.03-.199.061-.399.061-.606 0-2.206-1.794-4-4-4-1.87 0-3.432 1.295-3.868 3.032-2.164-.02-4.489.199-6.928.654-2.866-5.399-6.8-8.686-11.204-8.686-4.408 0-8.345 3.293-11.211 8.699-8.906-1.651-16.024-.206-18.697 4.53-2.485 4.405-.642 10.551 4.337 16.756-2.657 3.207-4.455 6.396-5.125 9.319-.665 2.901-.253 5.438 1.224 7.541 1.061 1.508 2.602 2.672 4.538 3.509-.035.212-.066.425-.066.646 0 2.206 1.794 4 4 4 1.927 0 3.539-1.37 3.916-3.187.038 0 .075.002.113.002 1.548 0 3.175-.13 4.857-.368 2.912 6.499 7.222 10.553 12.114 10.553 4.888 0 9.196-4.048 12.108-10.539 1.698.242 3.332.371 4.875.371 5.658 0 10.137-1.64 12.489-4.986 1.477-2.103 1.889-4.64 1.224-7.541-.67-2.923-2.469-6.113-5.125-9.32 4.979-6.205 6.823-12.351 4.337-16.757-.868-1.534-2.2-2.749-3.969-3.622zm-3.939-2.606c1.103 0 2 .897 2 2s-.897 2-2 2-2-.897-2-2 .897-2 2-2zm-22-5c3.428 0 6.613 2.716 9.078 7.137-2.925.684-5.977 1.675-9.074 2.949-3.132-1.286-6.187-2.268-9.086-2.943 2.466-4.425 5.652-7.143 9.082-7.143zm14 29c0 2.531-.168 4.997-.479 7.356-1.973 1.421-4.089 2.782-6.33 4.047-2.387 1.347-4.8 2.52-7.193 3.519-2.376-.991-4.788-2.164-7.19-3.519-2.241-1.264-4.356-2.625-6.329-4.046-.311-2.36-.479-4.826-.479-7.357 0-3.284.283-6.46.795-9.432 1.997-1.387 4.134-2.723 6.39-3.977 2.252-1.252 4.542-2.366 6.821-3.33 2.248.955 4.529 2.064 6.806 3.33 2.256 1.254 4.394 2.59 6.391 3.977.514 2.973.797 6.148.797 9.432zm1.515-7.749c2.853 2.163 5.36 4.419 7.404 6.675-1.989 2.285-4.41 4.574-7.181 6.759.169-1.84.262-3.737.262-5.685 0-2.685-.169-5.28-.485-7.749zm-2.432 17.864c-.549 2.948-1.326 5.682-2.286 8.102-2.591-.481-5.338-1.236-8.163-2.264 1.851-.839 3.703-1.773 5.539-2.808 1.717-.969 3.353-1.984 4.91-3.03zm-15.721 5.842c-2.798 1.019-5.544 1.781-8.159 2.26-.96-2.42-1.737-5.153-2.286-8.101 1.557 1.046 3.193 2.06 4.908 3.029 1.851 1.044 3.701 1.977 5.537 2.812zm-13.1-10.271c-2.772-2.185-5.193-4.474-7.182-6.76 2.045-2.256 4.552-4.513 7.406-6.676-.317 2.47-.486 5.064-.486 7.75 0 1.948.093 3.846.262 5.686zm3.091-17.897c.668-2.888 1.563-5.527 2.632-7.817 2.365.532 4.856 1.286 7.411 2.245-1.727.793-3.46 1.668-5.183 2.626-1.687.938-3.306 1.926-4.86 2.946zm20.433-2.946c-1.729-.961-3.455-1.83-5.167-2.615 2.528-.945 5.02-1.7 7.405-2.235 1.065 2.286 1.956 4.917 2.622 7.797-1.553-1.02-3.172-2.009-4.86-2.947zm-35.952-1.632c2.187-3.875 8.306-5.017 16.051-3.657-1.286 2.871-2.3 6.217-2.968 9.908-3.533 2.529-6.616 5.223-9.104 7.938-4.264-5.417-5.972-10.656-3.979-14.189zm7.166 38.789c-1.103 0-2-.897-2-2s.897-2 2-2 2 .897 2 2-.897 2-2 2zm3.798-3.193c-.511-1.621-2.01-2.807-3.798-2.807-1.271 0-2.392.607-3.125 1.533-1.602-.691-2.864-1.632-3.711-2.838-1.138-1.618-1.443-3.618-.91-5.943.59-2.572 2.147-5.384 4.464-8.238 2.406 2.72 5.393 5.426 8.871 7.974.523 3.687 1.377 7.08 2.506 10.051-1.49.19-2.927.28-4.297.268zm17.202 10.193c-3.866 0-7.423-3.451-9.986-8.91 3.202-.622 6.569-1.631 9.98-3.002 3.452 1.392 6.818 2.401 9.986 3.017-2.563 5.451-6.118 8.895-9.98 8.895zm28.745-20.248c.533 2.325.228 4.325-.91 5.943-2.481 3.531-8.025 4.762-14.935 3.857 1.131-2.974 1.987-6.373 2.511-10.066 3.477-2.548 6.464-5.253 8.87-7.973 2.317 2.855 3.874 5.667 4.464 8.239zm-4.559-11.352c-2.488-2.715-5.571-5.409-9.103-7.938-.666-3.681-1.677-7.019-2.958-9.885 2.135-.374 4.16-.559 6.028-.544.458 1.704 2.001 2.967 3.847 2.967 1.273 0 2.395-.609 3.128-1.538 1.355.689 2.389 1.601 3.037 2.749 1.993 3.533.285 8.772-3.979 14.189z"/><path d="m31 23v1.142c-1.721.447-3 2-3 3.858 0 2.206 1.794 4 4 4 1.103 0 2 .897 2 2s-.897 2-2 2-2-.897-2-2h-2c0 1.859 1.279 3.411 3 3.858v1.142h2v-1.142c1.721-.447 3-1.999 3-3.858 0-2.206-1.794-4-4-4-1.103 0-2-.897-2-2s.897-2 2-2 2 .897 2 2h2c0-1.858-1.279-3.411-3-3.858v-1.142z"/><path d="m21 31c0 6.065 4.935 11 11 11s11-4.935 11-11-4.935-11-11-11-11 4.935-11 11zm20 0c0 4.963-4.037 9-9 9s-9-4.037-9-9c0-4.962 4.037-9 9-9s9 4.038 9 9z"/></g></svg>