<svg id="Layer_1" enable-background="new 0 0 512 512" height="512" viewBox="0 0 512 512" width="512" xmlns="http://www.w3.org/2000/svg"><g><g fill="#546e7a"><path d="m272 58.833h-32v-35.333c0-8.837 7.163-16 16-16 8.837 0 16 7.163 16 16z"/><path d="m240 453.167h32v35.333c0 8.837-7.163 16-16 16-8.837 0-16-7.163-16-16z"/><path d="m453.167 272v-32h35.333c8.837 0 16 7.163 16 16 0 8.837-7.163 16-16 16z"/><path d="m58.833 240v32h-35.333c-8.837 0-16-7.163-16-16 0-8.837 7.163-16 16-16z"/></g><path d="m256 46c-115.98 0-210 94.02-210 210s94.02 210 210 210 210-94.02 210-210-94.02-210-210-210zm0 310c-55.23 0-100-44.77-100-100s44.77-100 100-100 100 44.77 100 100-44.77 100-100 100z" fill="#f1f1f1"/><g><path d="m256 46c-5.045 0-10.044.189-15 .539 108.978 7.693 195 98.526 195 209.461s-86.022 201.768-195 209.461c4.956.35 9.955.539 15 .539 115.98 0 210-94.02 210-210s-94.02-210-210-210z" fill="#e2e2e2"/></g><g><path d="m160.208 69.062 68.505 90.722c-15.903 4.49-30.908 12.99-43.423 25.505s-21.015 27.521-25.505 43.423l-90.722-68.505c9.73-18.993 22.55-36.805 38.445-52.701s33.707-28.714 52.7-38.444z" fill="#f54f68"/><path d="m442.938 351.792c-9.73 18.993-22.55 36.805-38.445 52.701s-33.708 28.716-52.701 38.445l-68.505-90.722c15.903-4.49 30.908-12.99 43.423-25.505 12.516-12.516 21.015-27.521 25.505-43.423z" fill="#f54f68"/><path d="m404.492 404.492c15.896-15.896 28.716-33.708 38.445-52.701l-22.294-16.834c-15.923 39.211-43.347 72.522-78.091 95.745l9.239 12.236c18.994-9.73 36.806-22.55 52.701-38.446z" fill="#e63a53"/></g><g><path d="m404.492 107.508c15.896 15.896 28.716 33.708 38.445 52.701l-90.722 68.504c-4.49-15.903-12.99-30.908-25.505-43.423-12.516-12.516-27.521-21.015-43.423-25.505l68.504-90.722c18.994 9.729 36.806 22.549 52.701 38.445z" fill="#f68d36"/><path d="m351.792 69.062-9.24 12.236c34.744 23.222 62.168 56.534 78.092 95.745l22.294-16.834c-9.73-18.993-22.55-36.805-38.445-52.701-15.896-15.896-33.708-28.716-52.701-38.446z" fill="#f66f1c"/><path d="m185.289 326.711c12.516 12.516 27.521 21.015 43.423 25.505l-68.504 90.722c-18.993-9.73-36.805-22.55-52.701-38.445-15.896-15.896-28.716-33.708-38.445-52.701l90.722-68.504c4.49 15.902 12.99 30.907 25.505 43.423z" fill="#f68d36"/></g><path d="m505.133 272.614c4.429-4.444 6.867-10.344 6.867-16.614 0-12.958-10.542-23.5-23.5-23.5h-.225l9.675-93.609c3.551-34.363-8.424-68.082-32.853-92.51-24.427-24.428-58.143-36.403-92.512-32.851l-93.094 9.662c-.079-6.154-2.504-11.935-6.878-16.324-4.443-4.429-10.343-6.868-16.613-6.868-12.855 0-23.326 10.376-23.492 23.192l-93.097-9.662c-26.681-2.759-53.547 3.965-75.655 18.929-3.431 2.322-4.329 6.985-2.007 10.415 1.45 2.142 3.813 3.297 6.218 3.297 1.446 0 2.909-.418 4.197-1.29 19.473-13.18 42.193-18.859 65.701-16.431l94.635 9.822v1.49c-49.21 5.254-94.807 26.954-130.296 62.443-35.489 35.488-57.189 81.085-62.442 130.295h-.957l-9.834-95.149c-2.706-26.248 4.899-51.971 21.415-72.43 2.602-3.223 2.098-7.945-1.125-10.547-3.224-2.602-7.945-2.098-10.547 1.125-19.02 23.562-27.779 53.176-24.664 83.392l9.675 93.609h-.225c-6.27 0-12.17 2.439-16.633 6.886-4.429 4.444-6.867 10.344-6.867 16.614 0 12.958 10.542 23.5 23.5 23.5h.225l-9.675 93.609c-3.551 34.363 8.424 68.082 32.853 92.51 21.603 21.603 50.468 33.466 80.624 33.465 3.943 0 7.913-.203 11.888-.614l93.094-9.662c.079 6.154 2.504 11.935 6.878 16.324 4.443 4.429 10.343 6.868 16.613 6.868 12.855 0 23.326-10.376 23.492-23.192l93.098 9.662c3.977.411 7.939.614 11.886.614 30.151-.001 59.021-11.864 80.622-33.465 24.429-24.428 36.403-58.147 32.853-92.51l-9.675-93.609h.225c6.269 0 12.169-2.439 16.632-6.886zm-8.133-16.614c0 2.273-.885 4.413-2.474 6.007-1.613 1.607-3.754 2.493-6.026 2.493h-15.178c.108-2.825.178-5.657.178-8.5 0-2.839-.065-5.672-.176-8.5h6.635.01.01 8.521c4.687 0 8.5 3.813 8.5 8.5zm-143.14 177.231-58.338-77.258c27.538-10.925 49.526-32.913 60.451-60.451l77.258 58.338c-18.469 33.316-46.055 60.902-79.371 79.371zm-265.515-63.625c-3.466-5.104-6.679-10.342-9.644-15.695l77.326-58.389c10.925 27.538 32.913 49.526 60.451 60.451l-58.397 77.336c-27.825-15.371-51.669-37.093-69.736-63.703zm-34.845-113.606c0-30.052 6.589-58.591 18.385-84.262l79.389 59.947c-1.814 7.816-2.774 15.955-2.774 24.315s.96 16.499 2.774 24.315l-79.449 59.992c-12.052-26.277-18.325-54.911-18.325-84.307zm110 0c0-51.005 41.495-92.5 92.5-92.5s92.5 41.495 92.5 92.5-41.495 92.5-92.5 92.5-92.5-41.495-92.5-92.5zm92.5-202.5c29.329 0 58.043 6.359 84.278 18.364l-59.963 79.41c-7.816-1.814-15.955-2.774-24.315-2.774s-16.499.96-24.315 2.774l-59.947-79.389c25.671-11.796 54.21-18.385 84.262-18.385zm184.115 286.762-79.389-59.947c1.814-7.816 2.774-15.956 2.774-24.315s-.96-16.499-2.774-24.315l79.395-59.951c12.006 26.255 18.379 54.995 18.379 84.266 0 30.052-6.589 58.591-18.385 84.262zm-65.984-311.811c29.857-3.084 59.141 7.317 80.36 28.537 21.221 21.221 31.623 50.511 28.539 80.361l-9.835 95.151h-.976c-4.671-42.905-22.038-83.719-50.073-116.869-2.675-3.163-7.407-3.559-10.569-.884-3.163 2.674-3.559 7.407-.884 10.569 8.636 10.212 16.184 21.207 22.577 32.793l-77.298 58.368c-10.925-27.538-32.913-49.526-60.451-60.451l58.367-77.296c12.478 6.891 24.277 15.115 35.163 24.611 3.121 2.723 7.859 2.4 10.582-.722 2.724-3.121 2.4-7.859-.721-10.582-33.641-29.346-75.36-47.477-119.412-52.257v-1.508zm-126.631 3.078c0-.008 0-.016 0-.024v-8.005c0-4.687 3.813-8.5 8.5-8.5 2.273 0 4.413.885 6.008 2.474 1.607 1.613 2.492 3.753 2.492 6.026v8.005.024 7.148c-2.827-.11-5.66-.177-8.5-.177-2.843 0-5.675.07-8.5.178zm-89.36 47.24 58.338 77.258c-27.537 10.925-49.526 32.913-60.45 60.451l-77.259-58.338c18.469-33.316 46.055-60.902 79.371-79.371zm-143.14 177.231c0-2.273.885-4.413 2.474-6.007 1.613-1.607 3.754-2.493 6.026-2.493h8.521.01.01 6.637c-.108 2.825-.178 5.657-.178 8.5 0 2.84.057 5.674.166 8.5h-15.166c-4.687 0-8.5-3.813-8.5-8.5zm122.869 227.549c-29.858 3.085-59.14-7.316-80.36-28.537s-31.623-50.511-28.539-80.361l9.835-95.151h.957c3.79 35.287 16.1 68.969 36.173 98.532 23.9 35.2 57.217 62.438 96.35 78.771.944.394 1.923.581 2.886.581 2.936 0 5.723-1.735 6.924-4.613 1.596-3.822-.21-8.214-4.032-9.81-2.142-.894-4.263-1.826-6.366-2.789l59.99-79.445c7.816 1.814 15.955 2.774 24.315 2.774s16.499-.96 24.315-2.774l59.947 79.389c-25.673 11.795-54.212 18.384-84.264 18.384-16.454 0-32.819-1.978-48.64-5.878-4.02-.989-8.086 1.465-9.077 5.487-.991 4.021 1.465 8.085 5.487 9.077 9.425 2.324 19.032 3.988 28.729 5.03v1.511zm118.131 13.451c-2.273 0-4.413-.885-6.008-2.474-1.607-1.613-2.492-3.753-2.492-6.026v-8.005c0-.008 0-.016 0-.024v-7.155c2.83.109 5.663.184 8.5.184 2.843 0 5.675-.07 8.5-.178v7.149.024 8.005c0 4.687-3.813 8.5-8.5 8.5zm227.03-122.349c3.084 29.85-7.318 59.141-28.539 80.361-21.22 21.22-50.509 31.626-80.356 28.538l-94.635-9.822v-1.49c49.21-5.254 94.807-26.954 130.296-62.443s57.189-81.085 62.442-130.296h.957z"/></g></svg>